# xmcd CD database file
#
# Track frame offsets:
#	150
#	21944
#	48061
#	71083
#	96110
#	121187
#	143849
#	161361
#	182476
#	213648
#	236747
#	253942
#
# Disc length: 3710 seconds
#
# Revision: 0
# Processed by: cddbd v1.5.1PL0 Copyright (c) Steve Scherf et al.
# Submitted via: CDex 1.51
#
DISCID=a50e7c0c
DTITLE=Neena Freelon - Tales of Wonder
DYEAR=2002
DGENRE=Jazz
TTITLE0=Overjoyed
TTITLE1=Creepin'
TTITLE2=Lately
TTITLE3=Superstition
TTITLE4=The Tears of a Clown
TTITLE5=Black Orchid
TTITLE6=My Cherie Amour
TTITLE7=Bird of Beauty
TTITLE8=All in Love is Fair
TTITLE9=Send One Your Love
TTITLE10=Another Star
TTITLE11=Until You Come Back to Me
EXTD=YEAR: 2002
EXTT0=
EXTT1=
EXTT2=
EXTT3=
EXTT4=
EXTT5=
EXTT6=
EXTT7=
EXTT8=
EXTT9=
EXTT10=
EXTT11=
PLAYORDER=
